<?xml version="1.0" encoding="UTF-8" standalone="no"?>
<!-- Created with Inkscape (http://www.inkscape.org/) -->

<svg
   width="255.99998"
   height="255.99998"
   viewBox="0 0 67.733328 67.733329"
   version="1.1"
   id="svg5"
   inkscape:version="1.2 (dc2aedaf03, 2022-05-15)"
   sodipodi:docname="icon.svg"
   xml:space="preserve"
   xmlns:inkscape="http://www.inkscape.org/namespaces/inkscape"
   xmlns:sodipodi="http://sodipodi.sourceforge.net/DTD/sodipodi-0.dtd"
   xmlns="http://www.w3.org/2000/svg"
   xmlns:svg="http://www.w3.org/2000/svg"><sodipodi:namedview
     id="namedview7"
     pagecolor="#505050"
     bordercolor="#ffffff"
     borderopacity="1"
     inkscape:showpageshadow="0"
     inkscape:pageopacity="0"
     inkscape:pagecheckerboard="1"
     inkscape:deskcolor="#505050"
     inkscape:document-units="px"
     showgrid="false"
     inkscape:zoom="4"
     inkscape:cx="125.625"
     inkscape:cy="205.125"
     inkscape:window-width="1920"
     inkscape:window-height="991"
     inkscape:window-x="-9"
     inkscape:window-y="-9"
     inkscape:window-maximized="1"
     inkscape:current-layer="layer1"
     showguides="false" /><defs
     id="defs2" /><g
     inkscape:label="Layer 1"
     inkscape:groupmode="layer"
     id="layer1"><rect
       style="fill:#000a22;fill-opacity:1;fill-rule:nonzero;stroke-width:2.465;stroke-linecap:round;stroke-linejoin:round;paint-order:stroke fill markers"
       id="rect327"
       width="67.73333"
       height="67.73333"
       x="1.3635254e-06"
       y="1.3635254e-06"
       rx="13.229166"
       ry="13.229166" /><g
       aria-label="0"
       id="text310-6"
       style="font-size:65.5575px;display:none;fill:#cccccc;stroke:#ffffff;stroke-width:50.8974;stroke-linecap:round;stroke-linejoin:round;paint-order:stroke fill markers"><path
         d="m 33.965002,57.959049 q -4.523467,0 -7.670228,-2.556742 -3.14676,-2.6223 -4.785697,-7.932458 -1.57338,-5.375715 -1.57338,-13.701518 0,-7.08021 1.31115,-12.455926 1.376707,-5.441272 4.45791,-8.456917 3.081203,-3.0812031 8.39136,-3.0812031 5.375716,0 8.325803,3.0812031 2.950088,3.015645 4.130123,8.39136 1.245592,5.310158 1.245592,12.128138 0,6.162405 -0.852247,10.816988 -0.78669,4.589025 -2.556743,7.670228 -1.704495,3.081202 -4.326795,4.589025 -2.556743,1.507822 -6.096848,1.507822 z m -9.833625,-6.359077 -0.52446,-2.228955 19.863923,-33.827672 1.114478,1.31115 z m 9.899183,4.72014 q 6.29352,0 9.112493,-5.572388 2.88453,-5.637945 2.88453,-17.241623 0,-6.490193 -1.04892,-11.472563 -0.983363,-4.98237 -3.605663,-7.801343 -2.556743,-2.818972 -7.276883,-2.818972 -4.72014,0 -7.407998,2.88453 -2.687857,2.818972 -3.867892,7.8669 -1.114478,4.98237 -1.114478,11.53812 0,11.669236 3.081203,17.176066 3.081203,5.441273 9.243608,5.441273 z"
         style="font-family:'Noto Sans Mono';-inkscape-font-specification:'Noto Sans Mono';stroke:none"
         id="path7172-7" /></g><path
       d="m 27.298088,15.593813 v -3.0972 H 39.68689 v 3.0972 z m 4.645802,23.074153 h 3.097199 V 26.795358 H 31.94389 Z m 1.548599,17.13783 q -3.819879,0 -7.200987,-1.471165 -3.381113,-1.471166 -5.910494,-4.000549 -2.52938,-2.529384 -4.000549,-5.910493 -1.471173,-3.381109 -1.471173,-7.200996 0,-3.819887 1.471173,-7.200996 1.471169,-3.381109 4.000549,-5.910493 2.529381,-2.529383 5.910494,-4.000549 3.381108,-1.471165 7.200987,-1.471165 3.458544,0 6.504121,1.161465 3.045581,1.161425 5.420103,3.226239 l 2.632619,-2.63263 2.168041,2.168059 -2.63262,2.632631 q 1.858317,2.064774 3.174628,5.007105 1.316311,2.942369 1.316311,7.020334 0,3.819887 -1.471169,7.200996 -1.471173,3.381109 -4.000549,5.910493 -2.52938,2.529383 -5.910493,4.000549 -3.381109,1.471165 -7.200992,1.471165 z m 0,-3.097201 q 6.452502,0 10.969252,-4.516742 4.516751,-4.516743 4.516751,-10.96926 0,-6.452478 -4.516751,-10.969259 -4.51675,-4.516744 -10.969252,-4.516744 -6.452497,0 -10.969252,4.516744 -4.51675,4.516781 -4.51675,10.969259 0,6.452517 4.51675,10.96926 4.516755,4.516742 10.969252,4.516742 z m 0,-15.434379 z"
       id="path2123"
       style="fill:#d6ddee;stroke-width:4.04812495;stroke-dasharray:none;fill-opacity:1" /></g></svg>
